<svg width="64" height="64" viewBox="0 0 64 64" fill="none" xmlns="http://www.w3.org/2000/svg">
<path d="M13.332 15.3269C13.332 10.0525 19.1677 6.86636 23.6045 9.71855L49.54 26.3924L49.9111 26.6473C53.4991 29.2972 53.4991 34.7024 49.9111 37.3523L49.54 37.6072L23.6045 54.281C19.1677 57.1332 13.332 53.9471 13.332 48.6727V15.3269ZM18.666 48.6727C18.666 49.7275 19.8324 50.3649 20.7197 49.7947L46.6562 33.1209L46.7998 33.0154C47.4249 32.4876 47.4249 31.512 46.7998 30.9842L46.6562 30.8787L20.7197 14.2049C19.8324 13.6347 18.666 14.2721 18.666 15.3269V48.6727Z"/>
</svg>
