<svg width="28" height="28" viewBox="0 0 28 28" fill="none" xmlns="http://www.w3.org/2000/svg">
<path d="M21.0004 9.948L21.1004 9.95273C21.5969 10.0022 21.9848 10.4151 21.9848 10.9167C21.9848 11.4184 21.5969 11.8313 21.1004 11.8808L21.0004 11.8855H7C6.45634 11.8855 6.01562 11.4518 6.01562 10.9167C6.01562 10.3817 6.45634 9.948 7 9.948H21.0004Z"/>
<path d="M24.4997 4.78125L24.6006 4.78598C25.097 4.83556 25.4841 5.24839 25.4841 5.75C25.4841 6.25161 25.097 6.66444 24.6006 6.71402L24.4997 6.71875H3.5C2.95634 6.71875 2.51562 6.28503 2.51562 5.75C2.51562 5.21497 2.95634 4.78125 3.5 4.78125H24.4997Z"/>
<path d="M24.4997 15.1145L24.6006 15.1192C25.097 15.1688 25.4841 15.5816 25.4841 16.0833C25.4841 16.5849 25.097 16.9977 24.6006 17.0473L24.4997 17.052H3.5C2.95634 17.052 2.51562 16.6183 2.51562 16.0833C2.51562 15.5482 2.95634 15.1145 3.5 15.1145H24.4997Z"/>
<path d="M21.0004 20.2812L21.1004 20.286C21.5969 20.3355 21.9848 20.7483 21.9848 21.25C21.9848 21.7517 21.5969 22.1645 21.1004 22.214L21.0004 22.2188H7C6.45634 22.2188 6.01562 21.785 6.01562 21.25C6.01562 20.715 6.45634 20.2812 7 20.2812H21.0004Z"/>
</svg>
