<svg width="58" height="64" viewBox="0 0 58 64" fill="none" xmlns="http://www.w3.org/2000/svg">
<path d="M9.39013 9.85328L6.41309 10.6506L12.0684 31.7655L15.0454 30.9682L9.39013 9.85328Z"/>
<path d="M35.582 1.50916L32.6826 2.55493L40.496 24.2174L43.3954 23.1716L35.582 1.50916Z"/>
<path d="M31.7784 14.4912L28.7656 15.1406L32.0698 30.4697L35.0826 29.8203L31.7784 14.4912Z"/>
<path d="M12.2836 63.9983C11.7588 63.9983 11.241 63.9965 10.7302 63.9948L12.2836 63.9983L12.2837 60.9161L10.7373 60.9109C16.3204 60.9408 30.854 61.5097 38.695 57.8287C45.8896 54.4507 51.7633 47.36 53.4417 39.0329C55.3262 29.6861 53.6108 20.3604 47.8445 12.8999C40.5231 3.42446 26.9106 0.331752 16.1777 5.70349C10.4256 8.58309 6.17923 13.7224 4.22427 20.172C2.10728 27.1535 2.9562 34.776 6.55086 41.0848C9.71579 46.6379 16.0967 50.2889 23.205 50.6112C31.6413 50.9952 39.5245 45.789 41.9392 38.2351C44.6902 29.6262 40.5038 20.4185 32.4074 17.2695C29.3429 16.0789 25.8785 16.0542 22.8563 17.0475L24.4396 23.0146C26.6112 22.4721 29.0963 22.8085 31.1851 23.9973C33.5962 25.3711 35.0334 27.5867 35.125 30.0806C35.3117 35.0913 32.6152 38.9167 27.9163 40.3151C22.4688 41.9372 16.2446 39.637 13.4355 34.968C10.2406 29.6562 11.403 22.0001 16.0826 17.5407C20.5068 13.3243 27.5165 12.0598 33.524 14.3969C43.135 18.1325 48.1211 29.0151 44.8751 39.1721C41.999 48.1719 33.0379 54.1372 23.0659 53.6881C14.9114 53.3182 7.55828 49.0719 3.8738 42.6082C-0.138273 35.5668 -1.08582 27.0619 1.27422 19.2737C3.47751 12.0052 8.28038 6.20544 14.7987 2.94189C26.8243 -3.07622 42.0783 0.391635 50.2821 11.0083C56.6225 19.2139 58.4894 29.5452 56.4358 39.7497C54.5759 48.9997 47.8833 57.008 39.838 60.7858C32.7227 64.1321 21.8119 63.9983 12.2836 63.9983ZM20.0189 18.3755C19.3673 18.7841 18.7597 19.2526 18.2084 19.7774C14.531 23.2823 13.594 29.2599 16.0756 33.3864C18.4761 37.3774 23.515 38.4147 27.0357 37.3668C28.6049 36.9001 32.233 35.2674 32.0446 30.2004C31.9935 28.7967 31.1235 27.5145 29.6599 26.6814C27.8723 25.6635 25.6989 25.5595 24.1244 26.4173L22.4019 27.356L20.0189 18.3755Z"/>
</svg>
