<svg width="24" height="24" viewBox="0 0 24 24" fill="none" xmlns="http://www.w3.org/2000/svg">
<path d="M9.57655 1.26487C11.7455 0.774899 14.0082 0.954913 16.0678 1.77464L16.4769 1.94651L16.5687 1.99339C17.0083 2.24542 17.1943 2.79401 16.9838 3.26683C16.7731 3.73965 16.2405 3.96899 15.7592 3.81077L15.6635 3.77366L15.3285 3.63206C13.6433 2.96135 11.7916 2.81508 10.017 3.21604C8.12393 3.64376 6.41953 4.67139 5.15858 6.14671C3.89762 7.62203 3.1476 9.466 3.0199 11.4026C2.89229 13.339 3.39431 15.2648 4.45057 16.8928C5.50687 18.5209 7.06081 19.7642 8.88123 20.4367C10.7017 21.1093 12.691 21.1755 14.5521 20.6252C16.4132 20.075 18.0463 18.9374 19.2084 17.383C20.3703 15.8288 20.9991 13.9408 21.0004 12.0002V11.0803C21.0004 10.528 21.4481 10.0803 22.0004 10.0803C22.5527 10.0803 23.0004 10.528 23.0004 11.0803V12.0002L22.9916 12.4446C22.9009 14.6595 22.1423 16.7992 20.8109 18.5803C19.3907 20.4801 17.3942 21.8706 15.1195 22.5432C12.8448 23.2158 10.4129 23.1348 8.18787 22.3127C5.96309 21.4907 4.06382 19.9713 2.77283 17.9817C1.4818 15.9918 0.867773 13.6376 1.02381 11.2707C1.17987 8.90401 2.09712 6.65098 3.63807 4.84788C5.17925 3.0447 7.2628 1.78763 9.57655 1.26487Z"/>
<path d="M21.2929 3.29296C21.6833 2.90259 22.3164 2.90275 22.707 3.29296C23.0974 3.68332 23.0972 4.31642 22.707 4.70702L12.707 14.7168C12.5195 14.9043 12.2652 15.0097 12 15.0098C11.7348 15.0098 11.4805 14.9043 11.2929 14.7168L8.29293 11.7168L8.22457 11.6416C7.90384 11.2488 7.92668 10.669 8.29293 10.3027C8.65902 9.93676 9.23809 9.91415 9.63082 10.2344L9.707 10.3027L12 12.5957L21.2929 3.29296Z"/>
</svg>
