<svg width="24" height="24" viewBox="0 0 24 24" fill="none" xmlns="http://www.w3.org/2000/svg">
<path d="M21.0132 1.08132C21.2427 1.00126 21.4876 0.97812 21.7271 1.01394L21.8315 1.03347L21.9341 1.05983C22.1375 1.12061 22.3255 1.22441 22.4858 1.36354L22.564 1.43581L22.6362 1.51296C22.7752 1.67322 22.8782 1.86148 22.939 2.06472L22.9663 2.16823L22.9858 2.27272C23.0215 2.51162 22.9972 2.7557 22.9175 2.98464L22.9185 2.98561L16.4185 21.9856V21.9866C16.3192 22.2759 16.1338 22.5283 15.8872 22.7092C15.6405 22.8903 15.3436 22.9914 15.0376 22.9993C14.7318 23.0071 14.4309 22.9212 14.1753 22.7532C13.9515 22.606 13.7716 22.4015 13.6538 22.1624L13.6069 22.0579L10.4273 14.1272L10.3853 14.0354C10.3384 13.9463 10.2781 13.8647 10.2065 13.7932C10.111 13.6979 9.9969 13.6227 9.87159 13.5725V13.5716L1.94092 10.3919C1.65703 10.2779 1.41476 10.08 1.24659 9.82448C1.0784 9.56878 0.992656 9.26716 1.00049 8.9612L1.00733 8.84694C1.03447 8.58198 1.13215 8.32842 1.29053 8.11257L1.36084 8.02272C1.5344 7.82046 1.75979 7.66822 2.01319 7.58132V7.58034L21.0132 1.08034V1.08132ZM12.2056 13.2053C12.2114 13.2174 12.2175 13.2293 12.2231 13.2415L12.2827 13.3801L12.2837 13.3821L14.9614 20.0628L19.9595 5.45241L12.2056 13.2053ZM3.93506 9.0364L10.6138 11.7151H10.6148C10.6743 11.7389 10.7328 11.7657 10.7905 11.7932L18.5464 4.03737L3.93506 9.0364Z"/>
</svg>
